{
.appVersion = "126";
DisplayStrings = (
","
);
copyright = "Copyright 2015 The Roboto Mono Project Authors (https://github.com/googlefonts/robotomono)";
date = "2008-09-12 12:29:34 +0000";
designer = Google;
designerURL = "Christian Robertson";
familyName = "Numeric Mono";
featurePrefixes = (
{
automatic = 1;
code = "languagesystem DFLT dflt;\012languagesystem latn dflt;\012languagesystem latn ROM;\012languagesystem latn MOL;\012languagesystem latn CAT;\012";
name = Languagesystems;
}
);
features = (
{
automatic = 1;
code = "feature locl;\012feature frac;\012feature ordn;\012";
name = aalt;
},
{
automatic = 1;
code = "script latn;\012language ROM;\012sub Scedilla by Scommaaccent;\012sub scedilla by scommaaccent;\012sub Tcedilla by Tcommaaccent;\012sub tcedilla by tcommaaccent;\012language MOL;\012sub Scedilla by Scommaaccent;\012sub scedilla by scommaaccent;\012sub Tcedilla by Tcommaaccent;\012sub tcedilla by tcommaaccent;\012language CAT;\012sub  l' periodcentered' l by ldot;\012sub  L' periodcentered' L by Ldot;\012";
name = locl;
},
{
automatic = 1;
code = "sub one slash eight by oneeighth;\012sub one slash four by onequarter;\012sub three slash eight by threeeighths;\012sub one slash two by onehalf;\012sub five slash eight by fiveeighths;\012sub three slash four by threequarters;\012sub seven slash eight by seveneighths;\012";
name = frac;
},
{
automatic = 1;
code = "sub [zero one two three four five six seven eight nine] [A a]' by ordfeminine;\012sub [zero one two three four five six seven eight nine] [O o]' by ordmasculine;\012sub N o period by numero;\012";
name = ordn;
}
);
fontMaster = (
{
ascender = 2146;
capHeight = 1456;
customParameters = (
{
name = "Prep Table Assembly";
value = "PUSHW[ ]	/* 1 value pushed */\012511 \012SCANCTRL[ ]	/* ScanConversionControl */\012PUSHB[ ]	/* 1 value pushed */\0124 \012SCANTYPE[ ]	/* ScanType */";
}
);
descender = -555;
id = "F4097653-A9A4-44E6-964D-6A1AD0606D75";
weightValue = 400;
widthValue = 5;
xHeight = 1082;
}

glyphs = (
{
glyphname = zero;
lastChange = "2025-05-25 15:00:21 +0000";
layers = (
{
layerId = "F4097653-A9A4-44E6-964D-6A1AD0606D75";
paths = (
{
closed = 1;
nodes = (
"1088 464.333 OFFCURVE",
"1077.333 382.167 OFFCURVE",
"1056 310.5 CURVE SMOOTH",
"1034.667 238.833 OFFCURVE",
"1004 178.667 OFFCURVE",
"964 130 CURVE SMOOTH",
"924 80.667 OFFCURVE",
"875 43.333 OFFCURVE",
"817 18 CURVE SMOOTH",
"759 -7.333 OFFCURVE",
"692.667 -20 OFFCURVE",
"618 -20 CURVE SMOOTH",
"544 -20 OFFCURVE",
"477.667 -7.5 OFFCURVE",
"419 17.5 CURVE SMOOTH",
"360.333 42.5 OFFCURVE",
"310.667 80 OFFCURVE",
"270 130 CURVE SMOOTH",
"229.333 178.667 OFFCURVE",
"198.333 238.833 OFFCURVE",
"177 310.5 CURVE SMOOTH",
"155.667 382.167 OFFCURVE",
"145 464.333 OFFCURVE",
"145 557 CURVE SMOOTH",
"145 898 LINE SMOOTH",
"145 990.667 OFFCURVE",
"155.667 1072.833 OFFCURVE",
"177 1144.5 CURVE SMOOTH",
"198.333 1216.167 OFFCURVE",
"229.333 1276.667 OFFCURVE",
"270 1326 CURVE SMOOTH",
"310 1375.333 OFFCURVE",
"359.167 1412.833 OFFCURVE",
"417.5 1438.5 CURVE SMOOTH",
"475.833 1464.167 OFFCURVE",
"542 1477 OFFCURVE",
"616 1477 CURVE SMOOTH",
"690.667 1477 OFFCURVE",
"757.167 1464.167 OFFCURVE",
"815.5 1438.5 CURVE SMOOTH",
"873.833 1412.833 OFFCURVE",
"923.333 1375.333 OFFCURVE",
"964 1326 CURVE SMOOTH",
"1004 1276.667 OFFCURVE",
"1034.667 1216.167 OFFCURVE",
"1056 1144.5 CURVE SMOOTH",
"1077.333 1072.833 OFFCURVE",
"1088 990.667 OFFCURVE",
"1088 898 CURVE SMOOTH",
"1088 557 LINE",
"1088 557 LINE"
);
},
{
closed = 1;
nodes = (
"336 419 LINE",
"342 370 OFFCURVE",
"352.667 327.5 OFFCURVE",
"368 290.5 CURVE SMOOTH",
"383.333 253.5 OFFCURVE",
"403.333 223 OFFCURVE",
"428 199 CURVE SMOOTH",
"450.667 176.333 OFFCURVE",
"478 159.167 OFFCURVE",
"510 147.5 CURVE SMOOTH",
"542 135.833 OFFCURVE",
"578 130 OFFCURVE",
"618 130 CURVE SMOOTH",
"660 130 OFFCURVE",
"697.333 136.333 OFFCURVE",
"730 149 CURVE SMOOTH",
"762.667 161.667 OFFCURVE",
"790.333 180 OFFCURVE",
"813 204 CURVE SMOOTH",
"843.667 236.667 OFFCURVE",
"866.167 279.333 OFFCURVE",
"880.5 332 CURVE SMOOTH",
"894.833 384.667 OFFCURVE",
"902 446.667 OFFCURVE",
"902 518 CURVE",
"902 518 LINE",
"902 724 LINE SMOOTH",
"902 734 OFFCURVE",
"902 753.167 OFFCURVE",
"902 781.5 CURVE SMOOTH",
"902 809.833 OFFCURVE",
"902 833.333 OFFCURVE",
"902 852 CURVE",
"898 1029 LINE",
"893 1077 OFFCURVE",
"883 1120 OFFCURVE",
"870 1157 CURVE SMOOTH",
"856 1194 OFFCURVE",
"837 1224 OFFCURVE",
"814 1249 CURVE SMOOTH",
"791 1274 OFFCURVE",
"764 1293 OFFCURVE",
"731 1306 CURVE SMOOTH",
"698 1319 OFFCURVE",
"659 1325 OFFCURVE",
"616 1325 CURVE SMOOTH",
"572 1325 OFFCURVE",
"533 1318 OFFCURVE",
"500 1305 CURVE SMOOTH",
"466 1291 OFFCURVE",
"437 1271 OFFCURVE",
"414 1245 CURVE SMOOTH",
"386 1212 OFFCURVE",
"365 1170 OFFCURVE",
"352 1119 CURVE SMOOTH",
"338 1067 OFFCURVE",
"331 1007 OFFCURVE",
"331 939 CURVE SMOOTH",
"331 695 LINE SMOOTH",
"331 678 OFFCURVE",
"331 662 OFFCURVE",
"331 645 CURVE SMOOTH",
"331 628 OFFCURVE",
"331 611 OFFCURVE",
"331 594 CURVE",
"331 594 LINE"
);
}
);
width = 1229;
}
);
note = zero;
unicode = 0030;
},
{
glyphname = one;
layers = (
{
layerId = "F4097653-A9A4-44E6-964D-6A1AD0606D75";
paths = (
{
closed = 1;
nodes = (
"774 0 LINE",
"589 0 LINE",
"589 1220 LINE",
"208 1075 LINE",
"208 1244 LINE",
"759 1456 LINE",
"774 1456 LINE",
"774 0 LINE"
);
}
);
width = 1229;
}
);
note = one;
unicode = 0031;
},
{
glyphname = two;
layers = (
{
layerId = "F4097653-A9A4-44E6-964D-6A1AD0606D75";
paths = (
{
closed = 1;
nodes = (
"1067 0 LINE",
"113 0 LINE",
"113 133 LINE",
"590 663 LINE SMOOTH",
"632.667 710.333 OFFCURVE",
"668.333 752.333 OFFCURVE",
"697 789 CURVE SMOOTH",
"725.667 825.667 OFFCURVE",
"748.667 859.667 OFFCURVE",
"766 891 CURVE SMOOTH",
"783.333 921.667 OFFCURVE",
"795.667 950.833 OFFCURVE",
"803 978.5 CURVE SMOOTH",
"810.333 1006.167 OFFCURVE",
"814 1034.667 OFFCURVE",
"814 1064 CURVE SMOOTH",
"814 1100 OFFCURVE",
"808.167 1133.833 OFFCURVE",
"796.5 1165.5 CURVE SMOOTH",
"784.833 1197.167 OFFCURVE",
"768 1224.667 OFFCURVE",
"746 1248 CURVE SMOOTH",
"723.333 1271.333 OFFCURVE",
"696.167 1289.833 OFFCURVE",
"664.5 1303.5 CURVE SMOOTH",
"632.833 1317.167 OFFCURVE",
"597 1324 OFFCURVE",
"557 1324 CURVE SMOOTH",
"508.333 1324 OFFCURVE",
"466.167 1317 OFFCURVE",
"430.5 1303 CURVE SMOOTH",
"394.833 1289 OFFCURVE",
"365.333 1269.333 OFFCURVE",
"342 1244 CURVE SMOOTH",
"318 1218 OFFCURVE",
"300.167 1186.667 OFFCURVE",
"288.5 1150 CURVE SMOOTH",
"276.833 1113.333 OFFCURVE",
"271 1072.333 OFFCURVE",
"271 1027 CURVE",
"85 1027 LINE",
"85 1088.333 OFFCURVE",
"95.667 1146.167 OFFCURVE",
"117 1200.5 CURVE SMOOTH",
"138.333 1254.833 OFFCURVE",
"169.333 1302.333 OFFCURVE",
"210 1343 CURVE SMOOTH",
"250 1383.667 OFFCURVE",
"299.167 1416 OFFCURVE",
"357.5 1440 CURVE SMOOTH",
"415.833 1464 OFFCURVE",
"482.333 1476 OFFCURVE",
"557 1476 CURVE SMOOTH",
"625.667 1476 OFFCURVE",
"687.5 1465.833 OFFCURVE",
"742.5 1445.5 CURVE SMOOTH",
"797.5 1425.167 OFFCURVE",
"844 1397 OFFCURVE",
"882 1361 CURVE SMOOTH",
"920 1325 OFFCURVE",
"949.167 1282.333 OFFCURVE",
"969.5 1233 CURVE SMOOTH",
"989.833 1183.667 OFFCURVE",
"1000 1130 OFFCURVE",
"1000 1072 CURVE SMOOTH",
"1000 1028.667 OFFCURVE",
"992.667 985.833 OFFCURVE",
"978 943.5 CURVE SMOOTH",
"963.333 901.167 OFFCURVE",
"943.667 859.333 OFFCURVE",
"919 818 CURVE SMOOTH",
"893.667 776.667 OFFCURVE",
"864.5 735.833 OFFCURVE",
"831.5 695.5 CURVE SMOOTH",
"798.5 655.167 OFFCURVE",
"763.667 615 OFFCURVE",
"727 575 CURVE SMOOTH",
"336 151 LINE",
"1067 151 LINE",
"1067 0 LINE"
);
}
);
width = 1229;
}
);
note = two;
unicode = 0032;
},
{
glyphname = three;
layers = (
{
layerId = "F4097653-A9A4-44E6-964D-6A1AD0606D75";
paths = (
{
closed = 1;
nodes = (
"390 817 LINE",
"522 817 LINE SMOOTH",
"568.667 817 OFFCURVE",
"609.833 823.333 OFFCURVE",
"645.5 836 CURVE SMOOTH",
"681.167 848.667 OFFCURVE",
"711.333 866 OFFCURVE",
"736 888 CURVE SMOOTH",
"760 910 OFFCURVE",
"778.333 936.333 OFFCURVE",
"791 967 CURVE SMOOTH",
"803.667 997.667 OFFCURVE",
"810 1031.333 OFFCURVE",
"810 1068 CURVE SMOOTH",
"810 1111.333 OFFCURVE",
"804.333 1149.167 OFFCURVE",
"793 1181.5 CURVE SMOOTH",
"781.667 1213.833 OFFCURVE",
"765 1240.667 OFFCURVE",
"743 1262 CURVE SMOOTH",
"721.667 1282.667 OFFCURVE",
"695.167 1298.167 OFFCURVE",
"663.5 1308.5 CURVE SMOOTH",
"631.833 1318.833 OFFCURVE",
"595.667 1324 OFFCURVE",
"555 1324 CURVE SMOOTH",
"515.667 1324 OFFCURVE",
"479.833 1318.167 OFFCURVE",
"447.5 1306.5 CURVE SMOOTH",
"415.167 1294.833 OFFCURVE",
"387.667 1278 OFFCURVE",
"365 1256 CURVE SMOOTH",
"341.667 1234 OFFCURVE",
"323.667 1207.667 OFFCURVE",
"311 1177 CURVE SMOOTH",
"298.333 1146.333 OFFCURVE",
"292 1112 OFFCURVE",
"292 1074 CURVE",
"106 1074 LINE",
"106 1129.333 OFFCURVE",
"116.833 1181.5 OFFCURVE",
"138.5 1230.5 CURVE SMOOTH",
"160.167 1279.5 OFFCURVE",
"190.667 1322.333 OFFCURVE",
"230 1359 CURVE SMOOTH",
"269.333 1395 OFFCURVE",
"316.5 1423.5 OFFCURVE",
"371.5 1444.5 CURVE SMOOTH",
"426.5 1465.5 OFFCURVE",
"487.667 1476 OFFCURVE",
"555 1476 CURVE SMOOTH",
"620.333 1476 OFFCURVE",
"680 1467.167 OFFCURVE",
"734 1449.5 CURVE SMOOTH",
"788 1431.833 OFFCURVE",
"834.333 1405.667 OFFCURVE",
"873 1371 CURVE SMOOTH",
"911.667 1336.333 OFFCURVE",
"941.667 1293.333 OFFCURVE",
"963 1242 CURVE SMOOTH",
"984.333 1190.667 OFFCURVE",
"995 1131.333 OFFCURVE",
"995 1064 CURVE SMOOTH",
"995 1036 OFFCURVE",
"990.667 1007 OFFCURVE",
"982 977 CURVE SMOOTH",
"973.333 947 OFFCURVE",
"960 918 OFFCURVE",
"942 890 CURVE SMOOTH",
"924 861.333 OFFCURVE",
"900.833 834.5 OFFCURVE",
"872.5 809.5 CURVE SMOOTH",
"844.167 784.5 OFFCURVE",
"810.333 763.667 OFFCURVE",
"771 747 CURVE",
"818.333 731.667 OFFCURVE",
"857.833 711.667 OFFCURVE",
"889.5 687 CURVE SMOOTH",
"921.167 662.333 OFFCURVE",
"946.667 634.667 OFFCURVE",
"966 604 CURVE SMOOTH",
"984.667 573.333 OFFCURVE",
"997.833 541 OFFCURVE",
"1005.5 507 CURVE SMOOTH",
"1013.167 473 OFFCURVE",
"1017 439.333 OFFCURVE",
"1017 406 CURVE SMOOTH",
"1017 338 OFFCURVE",
"1005.333 277.667 OFFCURVE",
"982 225 CURVE SMOOTH",
"958.667 172.333 OFFCURVE",
"926.333 128 OFFCURVE",
"885 92 CURVE SMOOTH",
"843.667 55.333 OFFCURVE",
"794.833 27.5 OFFCURVE",
"738.5 8.5 CURVE SMOOTH",
"682.167 -10.5 OFFCURVE",
"621.333 -20 OFFCURVE",
"556 -20 CURVE SMOOTH",
"492 -20 OFFCURVE",
"431.833 -11 OFFCURVE",
"375.5 7 CURVE SMOOTH",
"319.167 25 OFFCURVE",
"270.333 51.333 OFFCURVE",
"229 86 CURVE SMOOTH",
"187.667 120.667 OFFCURVE",
"154.833 163 OFFCURVE",
"130.5 213 CURVE SMOOTH",
"106.167 263 OFFCURVE",
"94 320 OFFCURVE",
"94 384 CURVE",
"279 384 LINE",
"279 346 OFFCURVE",
"285.5 311.333 OFFCURVE",
"298.5 280 CURVE SMOOTH",
"311.5 248.667 OFFCURVE",
"330 222 OFFCURVE",
"354 200 CURVE SMOOTH",
"378 178 OFFCURVE",
"407.167 161 OFFCURVE",
"441.5 149 CURVE SMOOTH",
"475.833 137 OFFCURVE",
"514 131 OFFCURVE",
"556 131 CURVE SMOOTH",
"598 131 OFFCURVE",
"636 136.5 OFFCURVE",
"670 147.5 CURVE SMOOTH",
"704 158.5 OFFCURVE",
"733 175.333 OFFCURVE",
"757 198 CURVE SMOOTH",
"781 220.667 OFFCURVE",
"799.5 248.833 OFFCURVE",
"812.5 282.5 CURVE SMOOTH",
"825.5 316.167 OFFCURVE",
"832 356 OFFCURVE",
"832 402 CURVE SMOOTH",
"832 447.333 OFFCURVE",
"824.5 486.5 OFFCURVE",
"809.5 519.5 CURVE SMOOTH",
"794.5 552.5 OFFCURVE",
"773.667 580 OFFCURVE",
"747 602 CURVE SMOOTH",
"719.667 624 OFFCURVE",
"686.833 640.333 OFFCURVE",
"648.5 651 CURVE SMOOTH",
"610.167 661.667 OFFCURVE",
"568 667 OFFCURVE",
"522 667 CURVE SMOOTH",
"390 667 LINE",
"390 817 LINE"
);
}
);
width = 1229;
}
);
note = three;
unicode = 0033;
},
{
glyphname = four;
layers = (
{
layerId = "F4097653-A9A4-44E6-964D-6A1AD0606D75";
paths = (
{
closed = 1;
nodes = (
"924 489 LINE",
"1127 489 LINE",
"1127 338 LINE",
"924 338 LINE",
"924 0 LINE",
"739 0 LINE",
"739 338 LINE",
"75 338 LINE",
"75 447 LINE",
"727 1456 LINE",
"924 1456 LINE",
"924 489 LINE"
);
},
{
closed = 1;
nodes = (
"280 489 LINE",
"739 489 LINE",
"739 1210 LINE",
"709 1154 LINE",
"280 489 LINE"
);
}
);
width = 1229;
}
);
note = four;
unicode = 0034;
},
{
glyphname = five;
layers = (
{
layerId = "F4097653-A9A4-44E6-964D-6A1AD0606D75";
paths = (
{
closed = 1;
nodes = (
"240 730 LINE",
"313 1456 LINE",
"1060 1456 LINE",
"1060 1276 LINE",
"469 1276 LINE",
"428 888 LINE",
"456.667 904.667 OFFCURVE",
"491 919.333 OFFCURVE",
"531 932 CURVE SMOOTH",
"571 944.667 OFFCURVE",
"617.333 951 OFFCURVE",
"670 951 CURVE SMOOTH",
"737.333 951 OFFCURVE",
"797.667 939.333 OFFCURVE",
"851 916 CURVE SMOOTH",
"904.333 892.667 OFFCURVE",
"949.667 860 OFFCURVE",
"987 818 CURVE SMOOTH",
"1024.333 775.333 OFFCURVE",
"1053 724 OFFCURVE",
"1073 664 CURVE SMOOTH",
"1093 604 OFFCURVE",
"1103 537.333 OFFCURVE",
"1103 464 CURVE SMOOTH",
"1103 394.667 OFFCURVE",
"1093.667 330.333 OFFCURVE",
"1075 271 CURVE SMOOTH",
"1056.333 211.667 OFFCURVE",
"1028.333 160.667 OFFCURVE",
"991 118 CURVE SMOOTH",
"953 74.667 OFFCURVE",
"905.333 40.833 OFFCURVE",
"848 16.5 CURVE SMOOTH",
"790.667 -7.833 OFFCURVE",
"723.333 -20 OFFCURVE",
"646 -20 CURVE SMOOTH",
"586.667 -20 OFFCURVE",
"530.667 -11.667 OFFCURVE",
"478 5 CURVE SMOOTH",
"425.333 21.667 OFFCURVE",
"378.667 46.667 OFFCURVE",
"338 80 CURVE SMOOTH",
"296.667 113.333 OFFCURVE",
"262.833 155.333 OFFCURVE",
"236.5 206 CURVE SMOOTH",
"210.167 256.667 OFFCURVE",
"193.667 315.667 OFFCURVE",
"187 383 CURVE",
"363 383 LINE",
"374.333 300.333 OFFCURVE",
"404.833 237.667 OFFCURVE",
"454.5 195 CURVE SMOOTH",
"504.167 152.333 OFFCURVE",
"568 131 OFFCURVE",
"646 131 CURVE SMOOTH",
"690 131 OFFCURVE",
"729 138.833 OFFCURVE",
"763 154.5 CURVE SMOOTH",
"797 170.167 OFFCURVE",
"825.667 192.667 OFFCURVE",
"849 222 CURVE SMOOTH",
"871.667 250.667 OFFCURVE",
"888.833 285.333 OFFCURVE",
"900.5 326 CURVE SMOOTH",
"912.167 366.667 OFFCURVE",
"918 412 OFFCURVE",
"918 462 CURVE SMOOTH",
"918 507.333 OFFCURVE",
"911.5 549.667 OFFCURVE",
"898.5 589 CURVE SMOOTH",
"885.5 628.333 OFFCURVE",
"866.667 662.667 OFFCURVE",
"842 692 CURVE SMOOTH",
"817.333 720.667 OFFCURVE",
"787 743.333 OFFCURVE",
"751 760 CURVE SMOOTH",
"715 776.667 OFFCURVE",
"673.667 785 OFFCURVE",
"627 785 CURVE SMOOTH",
"596.333 785 OFFCURVE",
"569.833 782.833 OFFCURVE",
"547.5 778.5 CURVE SMOOTH",
"525.167 774.167 OFFCURVE",
"505 768 OFFCURVE",
"487 760 CURVE SMOOTH",
"469 752 OFFCURVE",
"452.167 742.333 OFFCURVE",
"436.5 731 CURVE SMOOTH",
"420.833 719.667 OFFCURVE",
"404.667 706.667 OFFCURVE",
"388 692 CURVE",
"240 730 LINE"
);
}
);
width = 1229;
}
);
note = five;
unicode = 0035;
},
{
glyphname = six;
layers = (
{
layerId = "F4097653-A9A4-44E6-964D-6A1AD0606D75";
paths = (
{
closed = 1;
nodes = (
"856 1457 LINE",
"856 1291 LINE",
"840 1291 LINE SMOOTH",
"752 1291 OFFCURVE",
"677.333 1278.5 OFFCURVE",
"616 1253.5 CURVE SMOOTH",
"554.667 1228.5 OFFCURVE",
"504 1195 OFFCURVE",
"464 1153 CURVE SMOOTH",
"422 1109 OFFCURVE",
"390.167 1056.667 OFFCURVE",
"368.5 996 CURVE SMOOTH",
"346.833 935.333 OFFCURVE",
"334 873 OFFCURVE",
"330 809 CURVE",
"347.333 829.667 OFFCURVE",
"367.333 848.833 OFFCURVE",
"390 866.5 CURVE SMOOTH",
"412.667 884.167 OFFCURVE",
"437.333 899.667 OFFCURVE",
"464 913 CURVE SMOOTH",
"490 925.667 OFFCURVE",
"518.167 935.833 OFFCURVE",
"548.5 943.5 CURVE SMOOTH",
"578.833 951.167 OFFCURVE",
"610.667 955 OFFCURVE",
"644 955 CURVE SMOOTH",
"716.667 955 OFFCURVE",
"779.333 941.167 OFFCURVE",
"832 913.5 CURVE SMOOTH",
"884.667 885.833 OFFCURVE",
"928 849.333 OFFCURVE",
"962 804 CURVE SMOOTH",
"996 758.667 OFFCURVE",
"1021 707.333 OFFCURVE",
"1037 650 CURVE SMOOTH",
"1053 592.667 OFFCURVE",
"1061 534.333 OFFCURVE",
"1061 475 CURVE SMOOTH",
"1061 407 OFFCURVE",
"1051.5 343 OFFCURVE",
"1032.5 283 CURVE SMOOTH",
"1013.5 223 OFFCURVE",
"985 170.667 OFFCURVE",
"947 126 CURVE SMOOTH",
"909 80.667 OFFCURVE",
"861.833 45 OFFCURVE",
"805.5 19 CURVE SMOOTH",
"749.167 -7 OFFCURVE",
"684 -20 OFFCURVE",
"610 -20 CURVE SMOOTH",
"535.333 -20 OFFCURVE",
"469.667 -5 OFFCURVE",
"413 25 CURVE SMOOTH",
"356.333 55 OFFCURVE",
"308.667 94 OFFCURVE",
"270 142 CURVE SMOOTH",
"226.667 194.667 OFFCURVE",
"194.333 256.167 OFFCURVE",
"173 326.5 CURVE SMOOTH",
"151.667 396.833 OFFCURVE",
"141 467.333 OFFCURVE",
"141 538 CURVE SMOOTH",
"141 625 LINE SMOOTH",
"141 746.333 OFFCURVE",
"155.333 865.667 OFFCURVE",
"184 983 CURVE SMOOTH",
"212.667 1100.333 OFFCURVE",
"268.667 1200.667 OFFCURVE",
"352 1284 CURVE SMOOTH",
"409.333 1341.333 OFFCURVE",
"479 1384.5 OFFCURVE",
"561 1413.5 CURVE SMOOTH",
"643 1442.5 OFFCURVE",
"736 1457 OFFCURVE",
"840 1457 CURVE SMOOTH",
"856 1457 LINE"
);
},
{
closed = 1;
nodes = (
"582.667 801 OFFCURVE",
"552.333 796 OFFCURVE",
"523 786 CURVE SMOOTH",
"493.667 776 OFFCURVE",
"466.333 762 OFFCURVE",
"441 744 CURVE SMOOTH",
"415.667 726 OFFCURVE",
"393.333 704.333 OFFCURVE",
"374 679 CURVE SMOOTH",
"354.667 653.667 OFFCURVE",
"339.333 625.667 OFFCURVE",
"328 595 CURVE",
"328 533 LINE SMOOTH",
"328 469 OFFCURVE",
"335.667 412.167 OFFCURVE",
"351 362.5 CURVE SMOOTH",
"366.333 312.833 OFFCURVE",
"387 271 OFFCURVE",
"413 237 CURVE SMOOTH",
"439 203 OFFCURVE",
"469 177.167 OFFCURVE",
"503 159.5 CURVE SMOOTH",
"537 141.833 OFFCURVE",
"572.667 133 OFFCURVE",
"610 133 CURVE SMOOTH",
"653.333 133 OFFCURVE",
"691.667 141.333 OFFCURVE",
"725 158 CURVE SMOOTH",
"758.333 174.667 OFFCURVE",
"786.667 197.667 OFFCURVE",
"810 227 CURVE SMOOTH",
"832.667 256.333 OFFCURVE",
"849.833 291.5 OFFCURVE",
"861.5 332.5 CURVE SMOOTH",
"873.167 373.5 OFFCURVE",
"879 418 OFFCURVE",
"879 466 CURVE SMOOTH",
"879 508.667 OFFCURVE",
"873.667 550.167 OFFCURVE",
"863 590.5 CURVE SMOOTH",
"852.333 630.833 OFFCURVE",
"836 666.667 OFFCURVE",
"814 698 CURVE SMOOTH",
"792 729.333 OFFCURVE",
"764.333 754.333 OFFCURVE",
"731 773 CURVE SMOOTH",
"697.667 791.667 OFFCURVE",
"658.667 801 OFFCURVE",
"614 801 CURVE SMOOTH",
"614 801 LINE SMOOTH"
);
}
);
width = 1229;
}
);
note = six;
unicode = 0036;
},
{
glyphname = seven;
layers = (
{
layerId = "F4097653-A9A4-44E6-964D-6A1AD0606D75";
paths = (
{
closed = 1;
nodes = (
"1096 1352 LINE",
"493 0 LINE",
"299 0 LINE",
"900 1294 LINE",
"112 1294 LINE",
"112 1456 LINE",
"1096 1456 LINE",
"1096 1352 LINE"
);
}
);
width = 1229;
}
);
note = seven;
unicode = 0037;
},
{
glyphname = eight;
layers = (
{
layerId = "F4097653-A9A4-44E6-964D-6A1AD0606D75";
paths = (
{
closed = 1;
nodes = (
"1069.333 1027.333 OFFCURVE",
"1060 981.833 OFFCURVE",
"1042 939.5 CURVE SMOOTH",
"1024 897.167 OFFCURVE",
"999 860 OFFCURVE",
"967 828 CURVE SMOOTH",
"951.667 812.667 OFFCURVE",
"934.667 798.333 OFFCURVE",
"916 785 CURVE SMOOTH",
"897.333 771.667 OFFCURVE",
"877.333 759.667 OFFCURVE",
"856 749 CURVE",
"893.333 733 OFFCURVE",
"927.167 713.167 OFFCURVE",
"957.5 689.5 CURVE SMOOTH",
"987.833 665.833 OFFCURVE",
"1014 638.667 OFFCURVE",
"1036 608 CURVE SMOOTH",
"1057.333 577.333 OFFCURVE",
"1073.833 544 OFFCURVE",
"1085.5 508 CURVE SMOOTH",
"1097.167 472 OFFCURVE",
"1103 433.667 OFFCURVE",
"1103 393 CURVE SMOOTH",
"1103 327 OFFCURVE",
"1090.833 268.333 OFFCURVE",
"1066.5 217 CURVE SMOOTH",
"1042.167 165.667 OFFCURVE",
"1009.333 122.667 OFFCURVE",
"968 88 CURVE SMOOTH",
"926 52.667 OFFCURVE",
"877 25.833 OFFCURVE",
"821 7.5 CURVE SMOOTH",
"765 -10.833 OFFCURVE",
"705 -20 OFFCURVE",
"641 -20 CURVE SMOOTH",
"575.667 -20 OFFCURVE",
"514.833 -11 OFFCURVE",
"458.5 7 CURVE SMOOTH",
"402.167 25 OFFCURVE",
"353.333 51.667 OFFCURVE",
"312 87 CURVE SMOOTH",
"270 121.667 OFFCURVE",
"237 164.667 OFFCURVE",
"213 216 CURVE SMOOTH",
"189 267.333 OFFCURVE",
"177 326.333 OFFCURVE",
"177 393 CURVE SMOOTH",
"177 433.667 OFFCURVE",
"182.667 472.167 OFFCURVE",
"194 508.5 CURVE SMOOTH",
"205.333 544.833 OFFCURVE",
"221.667 578.333 OFFCURVE",
"243 609 CURVE SMOOTH",
"264.333 639 OFFCURVE",
"290 666 OFFCURVE",
"320 690 CURVE SMOOTH",
"350 714 OFFCURVE",
"383.667 734 OFFCURVE",
"421 750 CURVE",
"389 766 OFFCURVE",
"360 785.167 OFFCURVE",
"334 807.5 CURVE SMOOTH",
"308 829.833 OFFCURVE",
"286 855 OFFCURVE",
"268 883 CURVE SMOOTH",
"250 910.333 OFFCURVE",
"236 940.333 OFFCURVE",
"226 973 CURVE SMOOTH",
"216 1005.667 OFFCURVE",
"211 1040 OFFCURVE",
"211 1076 CURVE SMOOTH",
"211 1139.333 OFFCURVE",
"221.667 1195.833 OFFCURVE",
"243 1245.5 CURVE SMOOTH",
"264.333 1295.167 OFFCURVE",
"294 1337 OFFCURVE",
"332 1371 CURVE SMOOTH",
"369.333 1405 OFFCURVE",
"414.167 1431 OFFCURVE",
"466.5 1449 CURVE SMOOTH",
"518.833 1467 OFFCURVE",
"576 1476 OFFCURVE",
"638 1476 CURVE SMOOTH",
"699.333 1476 OFFCURVE",
"756.333 1467 OFFCURVE",
"809 1449 CURVE SMOOTH",
"861.667 1431 OFFCURVE",
"907.333 1405 OFFCURVE",
"946 1371 CURVE SMOOTH",
"984.667 1337 OFFCURVE",
"1015 1295.167 OFFCURVE",
"1037 1245.5 CURVE SMOOTH",
"1059 1195.833 OFFCURVE",
"1070 1139.333 OFFCURVE",
"1070 1076 CURVE",
"1070 1076 LINE"
);
},
{
closed = 1;
nodes = (
"918 437.667 OFFCURVE",
"911.167 475 OFFCURVE",
"897.5 509 CURVE SMOOTH",
"883.833 543 OFFCURVE",
"864.667 572.333 OFFCURVE",
"840 597 CURVE SMOOTH",
"815.333 621 OFFCURVE",
"785.833 639.667 OFFCURVE",
"751.5 653 CURVE SMOOTH",
"717.167 666.333 OFFCURVE",
"679.667 673 OFFCURVE",
"639 673 CURVE SMOOTH",
"597 673 OFFCURVE",
"559 666.333 OFFCURVE",
"525 653 CURVE SMOOTH",
"491 639.667 OFFCURVE",
"462 621 OFFCURVE",
"438 597 CURVE SMOOTH",
"414 572.333 OFFCURVE",
"395.5 543 OFFCURVE",
"382.5 509 CURVE SMOOTH",
"369.5 475 OFFCURVE",
"363 437.667 OFFCURVE",
"363 397 CURVE SMOOTH",
"363 355 OFFCURVE",
"369.5 317.5 OFFCURVE",
"382.5 284.5 CURVE SMOOTH",
"395.5 251.5 OFFCURVE",
"414 223.667 OFFCURVE",
"438 201 CURVE SMOOTH",
"462 178.333 OFFCURVE",
"491.167 161 OFFCURVE",
"525.5 149 CURVE SMOOTH",
"559.833 137 OFFCURVE",
"598.333 131 OFFCURVE",
"641 131 CURVE SMOOTH",
"681.667 131 OFFCURVE",
"719 137 OFFCURVE",
"753 149 CURVE SMOOTH",
"787 161 OFFCURVE",
"816.333 178.333 OFFCURVE",
"841 201 CURVE SMOOTH",
"865 223.667 OFFCURVE",
"883.833 251.5 OFFCURVE",
"897.5 284.5 CURVE SMOOTH",
"911.167 317.5 OFFCURVE",
"918 355 OFFCURVE",
"918 397 CURVE",
"918 397 LINE"
);
},
{
closed = 1;
nodes = (
"884 1109.667 OFFCURVE",
"877.833 1143.333 OFFCURVE",
"865.5 1174 CURVE SMOOTH",
"853.167 1204.667 OFFCURVE",
"836.333 1231.333 OFFCURVE",
"815 1254 CURVE SMOOTH",
"793 1276 OFFCURVE",
"767 1293.167 OFFCURVE",
"737 1305.5 CURVE SMOOTH",
"707 1317.833 OFFCURVE",
"674 1324 OFFCURVE",
"638 1324 CURVE SMOOTH",
"602 1324 OFFCURVE",
"569.333 1318.167 OFFCURVE",
"540 1306.5 CURVE SMOOTH",
"510.667 1294.833 OFFCURVE",
"485.333 1278 OFFCURVE",
"464 1256 CURVE SMOOTH",
"442.667 1234 OFFCURVE",
"426.167 1207.5 OFFCURVE",
"414.5 1176.5 CURVE SMOOTH",
"402.833 1145.5 OFFCURVE",
"397 1111 OFFCURVE",
"397 1073 CURVE SMOOTH",
"397 1035 OFFCURVE",
"402.833 1000.833 OFFCURVE",
"414.5 970.5 CURVE SMOOTH",
"426.167 940.167 OFFCURVE",
"443 914.333 OFFCURVE",
"465 893 CURVE SMOOTH",
"486.333 871 OFFCURVE",
"511.833 854.167 OFFCURVE",
"541.5 842.5 CURVE SMOOTH",
"571.167 830.833 OFFCURVE",
"604 825 OFFCURVE",
"640 825 CURVE SMOOTH",
"675.333 825 OFFCURVE",
"708 830.833 OFFCURVE",
"738 842.5 CURVE SMOOTH",
"768 854.167 OFFCURVE",
"794 871 OFFCURVE",
"816 893 CURVE SMOOTH",
"837.333 914.333 OFFCURVE",
"854 940.333 OFFCURVE",
"866 971 CURVE SMOOTH",
"878 1001.667 OFFCURVE",
"884 1035.667 OFFCURVE",
"884 1073 CURVE",
"884 1073 LINE"
);
}
);
width = 1229;
}
);
note = eight;
unicode = 0038;
},
{
glyphname = nine;
layers = (
{
layerId = "F4097653-A9A4-44E6-964D-6A1AD0606D75";
paths = (
{
closed = 1;
nodes = (
"466.333 164 OFFCURVE",
"544.167 175.167 OFFCURVE",
"606.5 197.5 CURVE SMOOTH",
"668.833 219.833 OFFCURVE",
"719 251.333 OFFCURVE",
"757 292 CURVE SMOOTH",
"803 342 OFFCURVE",
"834 395.667 OFFCURVE",
"850 453 CURVE SMOOTH",
"866 510.333 OFFCURVE",
"875.667 569.667 OFFCURVE",
"879 631 CURVE",
"879 633 LINE",
"863 613 OFFCURVE",
"844.667 594.167 OFFCURVE",
"824 576.5 CURVE SMOOTH",
"803.333 558.833 OFFCURVE",
"780 543.333 OFFCURVE",
"754 530 CURVE SMOOTH",
"728 516.667 OFFCURVE",
"699.167 506.167 OFFCURVE",
"667.5 498.5 CURVE SMOOTH",
"635.833 490.833 OFFCURVE",
"601.333 487 OFFCURVE",
"564 487 CURVE SMOOTH",
"492 487 OFFCURVE",
"429.833 501.167 OFFCURVE",
"377.5 529.5 CURVE SMOOTH",
"325.167 557.833 OFFCURVE",
"282 595 OFFCURVE",
"248 641 CURVE SMOOTH",
"214 687 OFFCURVE",
"189 739 OFFCURVE",
"173 797 CURVE SMOOTH",
"157 855 OFFCURVE",
"149 913.333 OFFCURVE",
"149 972 CURVE SMOOTH",
"149 1040.667 OFFCURVE",
"158.5 1105.5 OFFCURVE",
"177.5 1166.5 CURVE SMOOTH",
"196.5 1227.5 OFFCURVE",
"225 1281 OFFCURVE",
"263 1327 CURVE SMOOTH",
"300.333 1372.333 OFFCURVE",
"347.167 1408.5 OFFCURVE",
"403.5 1435.5 CURVE SMOOTH",
"459.833 1462.5 OFFCURVE",
"525.333 1476 OFFCURVE",
"600 1476 CURVE SMOOTH",
"674.667 1476 OFFCURVE",
"739.5 1462.167 OFFCURVE",
"794.5 1434.5 CURVE SMOOTH",
"849.5 1406.833 OFFCURVE",
"895.667 1370.333 OFFCURVE",
"933 1325 CURVE SMOOTH",
"977 1271.667 OFFCURVE",
"1010 1205.167 OFFCURVE",
"1032 1125.5 CURVE SMOOTH",
"1054 1045.833 OFFCURVE",
"1065 966.333 OFFCURVE",
"1065 887 CURVE SMOOTH",
"1065 820 LINE SMOOTH",
"1065 707.333 OFFCURVE",
"1053 594.167 OFFCURVE",
"1029 480.5 CURVE SMOOTH",
"1005 366.833 OFFCURVE",
"953.667 266 OFFCURVE",
"875 178 CURVE SMOOTH",
"827.667 124.667 OFFCURVE",
"762.167 81.5 OFFCURVE",
"678.5 48.5 CURVE SMOOTH",
"594.833 15.5 OFFCURVE",
"493 -1 OFFCURVE",
"373 -1 CURVE SMOOTH",
"354 -1 LINE",
"354 164 LINE",
"373 164 LINE",
"373 164 LINE"
);
},
{
closed = 1;
nodes = (
"625.333 640 OFFCURVE",
"655.833 645.167 OFFCURVE",
"685.5 655.5 CURVE SMOOTH",
"715.167 665.833 OFFCURVE",
"742.667 680.667 OFFCURVE",
"768 700 CURVE SMOOTH",
"792.667 718.667 OFFCURVE",
"814.833 740.833 OFFCURVE",
"834.5 766.5 CURVE SMOOTH",
"854.167 792.167 OFFCURVE",
"869.667 820.667 OFFCURVE",
"881 852 CURVE",
"881 912 LINE SMOOTH",
"881 976.667 OFFCURVE",
"873.5 1034.333 OFFCURVE",
"858.5 1085 CURVE SMOOTH",
"843.5 1135.667 OFFCURVE",
"823.333 1178.667 OFFCURVE",
"798 1214 CURVE SMOOTH",
"772 1248.667 OFFCURVE",
"742.167 1275.333 OFFCURVE",
"708.5 1294 CURVE SMOOTH",
"674.833 1312.667 OFFCURVE",
"639 1322 OFFCURVE",
"601 1322 CURVE SMOOTH",
"557.667 1322 OFFCURVE",
"519.333 1313.333 OFFCURVE",
"486 1296 CURVE SMOOTH",
"452.667 1278.667 OFFCURVE",
"424.667 1255 OFFCURVE",
"402 1225 CURVE SMOOTH",
"378.667 1194.333 OFFCURVE",
"361 1158.167 OFFCURVE",
"349 1116.5 CURVE SMOOTH",
"337 1074.833 OFFCURVE",
"331 1030 OFFCURVE",
"331 982 CURVE SMOOTH",
"331 939.333 OFFCURVE",
"336.333 897.5 OFFCURVE",
"347 856.5 CURVE SMOOTH",
"357.667 815.5 OFFCURVE",
"374 779 OFFCURVE",
"396 747 CURVE SMOOTH",
"417.333 715 OFFCURVE",
"444.5 689.167 OFFCURVE",
"477.5 669.5 CURVE SMOOTH",
"510.5 649.833 OFFCURVE",
"549.333 640 OFFCURVE",
"594 640 CURVE",
"594 640 LINE"
);
}
);
width = 1229;
}
);
note = nine;
unicode = 0039;
},
{
glyphname = period;
lastChange = "2025-06-24 02:13:56 +0000";
layers = (
{
layerId = "F4097653-A9A4-44E6-964D-6A1AD0606D75";
paths = (
{
closed = 1;
nodes = (
"171 159 OFFCURVE",
"183 193 OFFCURVE",
"207 221 CURVE SMOOTH",
"231 249 OFFCURVE",
"267 263 OFFCURVE",
"316 263 CURVE SMOOTH",
"364 263 OFFCURVE",
"401 249 OFFCURVE",
"426 222 CURVE SMOOTH",
"451 194 OFFCURVE",
"463 160 OFFCURVE",
"463 120 CURVE SMOOTH",
"463 81 OFFCURVE",
"450 48 OFFCURVE",
"425 21 CURVE SMOOTH",
"400 -6 OFFCURVE",
"363 -19 OFFCURVE",
"316 -19 CURVE SMOOTH",
"268 -19 OFFCURVE",
"232 -6 OFFCURVE",
"208 22 CURVE SMOOTH",
"183 49 OFFCURVE",
"171 81 OFFCURVE",
"171 120 CURVE",
"171 120 LINE"
);
}
);
width = 614;
}
);
note = period;
unicode = 002E;
},
{
glyphname = comma;
lastChange = "2025-06-24 02:14:50 +0000";
layers = (
{
layerId = "F4097653-A9A4-44E6-964D-6A1AD0606D75";
paths = (
{
closed = 1;
nodes = (
"411 -24 OFFCURVE",
"395 -92 OFFCURVE",
"364 -161 CURVE SMOOTH",
"333 -230 OFFCURVE",
"290 -289 OFFCURVE",
"237 -336 CURVE",
"122 -273 LINE",
"154 -226 OFFCURVE",
"177 -177 OFFCURVE",
"190 -124 CURVE SMOOTH",
"203 -71 OFFCURVE",
"210 -17 OFFCURVE",
"210 40 CURVE SMOOTH",
"210 219 LINE",
"411 219 LINE",
"411 43 LINE",
"411 43 LINE"
);
}
);
width = 614;
}
);
note = comma;
unicode = 002C;
},
{
glyphname = hyphen;
lastChange = "2025-05-26 15:18:20 +0000";
layers = (
{
layerId = "F4097653-A9A4-44E6-964D-6A1AD0606D75";
paths = (
{
closed = 1;
nodes = (
"983 561 LINE",
"218 561 LINE",
"218 713 LINE",
"983 713 LINE",
"983 561 LINE"
);
}
);
width = 1229;
}
);
note = hyphen;
unicode = 002D;
},
{
glyphname = dollar;
layers = (
{
layerId = "F4097653-A9A4-44E6-964D-6A1AD0606D75";
paths = (
{
closed = 1;
nodes = (
"907 405 OFFCURVE",
"901.833 432.833 OFFCURVE",
"891.5 458.5 CURVE SMOOTH",
"881.167 484.167 OFFCURVE",
"864.667 508 OFFCURVE",
"842 530 CURVE SMOOTH",
"819.333 552 OFFCURVE",
"790 572.5 OFFCURVE",
"754 591.5 CURVE SMOOTH",
"718 610.5 OFFCURVE",
"675.333 628 OFFCURVE",
"626 644 CURVE SMOOTH",
"564 663.333 OFFCURVE",
"508 685.667 OFFCURVE",
"458 711 CURVE SMOOTH",
"408 736.333 OFFCURVE",
"365.333 766.667 OFFCURVE",
"330 802 CURVE SMOOTH",
"294 836.667 OFFCURVE",
"266.333 876.667 OFFCURVE",
"247 922 CURVE SMOOTH",
"227.667 967.333 OFFCURVE",
"218 1019.667 OFFCURVE",
"218 1079 CURVE SMOOTH",
"218 1135 OFFCURVE",
"226.5 1185.667 OFFCURVE",
"243.5 1231 CURVE SMOOTH",
"260.5 1276.333 OFFCURVE",
"284.667 1316 OFFCURVE",
"316 1350 CURVE SMOOTH",
"346.667 1383.333 OFFCURVE",
"384.167 1410.333 OFFCURVE",
"428.5 1431 CURVE SMOOTH",
"472.833 1451.667 OFFCURVE",
"522 1465.333 OFFCURVE",
"576 1472 CURVE",
"576 1692 LINE",
"725 1692 LINE",
"725 1472 LINE",
"773.667 1465.333 OFFCURVE",
"818 1452.5 OFFCURVE",
"858 1433.5 CURVE SMOOTH",
"898 1414.5 OFFCURVE",
"932.667 1390 OFFCURVE",
"962 1360 CURVE SMOOTH",
"1000 1320 OFFCURVE",
"1029 1270.5 OFFCURVE",
"1049 1211.5 CURVE SMOOTH",
"1069 1152.5 OFFCURVE",
"1079.333 1084.667 OFFCURVE",
"1080 1008 CURVE",
"896 1008 LINE",
"896 1052.667 OFFCURVE",
"890.5 1093.833 OFFCURVE",
"879.5 1131.5 CURVE SMOOTH",
"868.5 1169.167 OFFCURVE",
"852.667 1201.667 OFFCURVE",
"832 1229 CURVE SMOOTH",
"810.667 1255.667 OFFCURVE",
"784.667 1276.667 OFFCURVE",
"754 1292 CURVE SMOOTH",
"723.333 1307.333 OFFCURVE",
"688.333 1315 OFFCURVE",
"649 1315 CURVE SMOOTH",
"606.333 1315 OFFCURVE",
"569.167 1309 OFFCURVE",
"537.5 1297 CURVE SMOOTH",
"505.833 1285 OFFCURVE",
"480 1268 OFFCURVE",
"460 1246 CURVE SMOOTH",
"441.333 1226 OFFCURVE",
"427.167 1202.167 OFFCURVE",
"417.5 1174.5 CURVE SMOOTH",
"407.833 1146.833 OFFCURVE",
"403 1116 OFFCURVE",
"403 1082 CURVE SMOOTH",
"403 1048.667 OFFCURVE",
"408.333 1019 OFFCURVE",
"419 993 CURVE SMOOTH",
"429.667 967 OFFCURVE",
"446.667 943.333 OFFCURVE",
"470 922 CURVE SMOOTH",
"492.667 900.667 OFFCURVE",
"522.167 880.833 OFFCURVE",
"558.5 862.5 CURVE SMOOTH",
"594.833 844.167 OFFCURVE",
"638.667 826.333 OFFCURVE",
"690 809 CURVE SMOOTH",
"752.667 788.333 OFFCURVE",
"809 765.333 OFFCURVE",
"859 740 CURVE SMOOTH",
"909 714.667 OFFCURVE",
"951.333 685 OFFCURVE",
"986 651 CURVE SMOOTH",
"1020.667 617 OFFCURVE",
"1047.167 577.667 OFFCURVE",
"1065.5 533 CURVE SMOOTH",
"1083.833 488.333 OFFCURVE",
"1093 436.333 OFFCURVE",
"1093 377 CURVE SMOOTH",
"1093 319 OFFCURVE",
"1083.833 267 OFFCURVE",
"1065.5 221 CURVE SMOOTH",
"1047.167 175 OFFCURVE",
"1021.333 135.667 OFFCURVE",
"988 103 CURVE SMOOTH",
"954.667 69.667 OFFCURVE",
"914.167 43 OFFCURVE",
"866.5 23 CURVE SMOOTH",
"818.833 3 OFFCURVE",
"766 -10 OFFCURVE",
"708 -16 CURVE",
"708 -208 LINE",
"559 -208 LINE",
"559 -17 LINE",
"507 -11.667 OFFCURVE",
"457.167 0.333 OFFCURVE",
"409.5 19 CURVE SMOOTH",
"361.833 37.667 OFFCURVE",
"319.667 65 OFFCURVE",
"283 101 CURVE SMOOTH",
"246.333 136.333 OFFCURVE",
"217 181 OFFCURVE",
"195 235 CURVE SMOOTH",
"173 289 OFFCURVE",
"162 353.667 OFFCURVE",
"162 429 CURVE",
"347 429 LINE",
"347 373 OFFCURVE",
"355.333 326.5 OFFCURVE",
"372 289.5 CURVE SMOOTH",
"388.667 252.5 OFFCURVE",
"410.333 223 OFFCURVE",
"437 201 CURVE SMOOTH",
"463 179 OFFCURVE",
"492.667 163.333 OFFCURVE",
"526 154 CURVE SMOOTH",
"559.333 144.667 OFFCURVE",
"593 140 OFFCURVE",
"627 140 CURVE SMOOTH",
"670.333 140 OFFCURVE",
"709.333 145.333 OFFCURVE",
"744 156 CURVE SMOOTH",
"778.667 166.667 OFFCURVE",
"808 182.333 OFFCURVE",
"832 203 CURVE SMOOTH",
"856 223 OFFCURVE",
"874.5 247.5 OFFCURVE",
"887.5 276.5 CURVE SMOOTH",
"900.5 305.5 OFFCURVE",
"907 338.333 OFFCURVE",
"907 375 CURVE",
"907 375 LINE"
);
}
);
width = 1229;
}
);
note = dollar;
unicode = 0024;
},
{
glyphname = yen;
layers = (
{
layerId = "F4097653-A9A4-44E6-964D-6A1AD0606D75";
paths = (
{
closed = 1;
nodes = (
"518 0 LINE",
"518 326 LINE",
"138 326 LINE",
"138 446 LINE",
"518 446 LINE",
"518 615 LINE",
"138 615 LINE",
"138 736 LINE",
"454 736 LINE",
"33 1456 LINE",
"245 1456 LINE",
"567 866 LINE",
"613 780 LINE",
"615 780 LINE",
"661 865 LINE",
"983 1456 LINE",
"1195 1456 LINE",
"774 736 LINE",
"1092 736 LINE",
"1092 615 LINE",
"703 615 LINE",
"703 446 LINE",
"1092 446 LINE",
"1092 326 LINE",
"703 326 LINE",
"703 0 LINE",
"518 0 LINE"
);
}
);
width = 1229;
}
);
note = yen;
unicode = 00A5;
},
{
glyphname = plus;
layers = (
{
layerId = "F4097653-A9A4-44E6-964D-6A1AD0606D75";
paths = (
{
closed = 1;
nodes = (
"710 781 LINE",
"1117 781 LINE",
"1117 597 LINE",
"710 597 LINE",
"710 146 LINE",
"525 146 LINE",
"525 597 LINE",
"119 597 LINE",
"119 781 LINE",
"525 781 LINE",
"525 1206 LINE",
"710 1206 LINE",
"710 781 LINE"
);
}
);
width = 1229;
}
);
note = plus;
unicode = 002B;
},
{
glyphname = minus;
layers = (
{
layerId = "F4097653-A9A4-44E6-964D-6A1AD0606D75";
paths = (
{
closed = 1;
nodes = (
"1004 651 LINE",
"169 651 LINE",
"169 802 LINE",
"1004 802 LINE",
"1004 651 LINE"
);
}
);
width = 1229;
}
);
note = minus;
unicode = 2212;
},
{
glyphname = uni047A;
layers = (
{
layerId = "F4097653-A9A4-44E6-964D-6A1AD0606D75";
paths = (
{
closed = 1;
nodes = (
"706 1203 LINE",
"521 1203 LINE",
"521 1589 LINE",
"706 1589 LINE",
"706 1203 LINE"
);
},
{
closed = 1;
nodes = (
"706 -141 LINE",
"521 -141 LINE",
"521 254 LINE",
"706 254 LINE",
"706 -141 LINE"
);
},
{
closed = 1;
nodes = (
"1120.333 592 OFFCURVE",
"1115.833 539.5 OFFCURVE",
"1107.5 486.5 CURVE SMOOTH",
"1099.167 433.5 OFFCURVE",
"1086.333 382.333 OFFCURVE",
"1069 333 CURVE SMOOTH",
"1051.667 283.667 OFFCURVE",
"1029.5 237.667 OFFCURVE",
"1002.5 195 CURVE SMOOTH",
"975.5 152.333 OFFCURVE",
"943.333 115 OFFCURVE",
"906 83 CURVE SMOOTH",
"868.667 51 OFFCURVE",
"825.833 25.833 OFFCURVE",
"777.5 7.5 CURVE SMOOTH",
"729.167 -10.833 OFFCURVE",
"675 -20 OFFCURVE",
"615 -20 CURVE SMOOTH",
"555 -20 OFFCURVE",
"500.833 -10.833 OFFCURVE",
"452.5 7.5 CURVE SMOOTH",
"404.167 25.833 OFFCURVE",
"361.333 51 OFFCURVE",
"324 83 CURVE SMOOTH",
"286.667 115 OFFCURVE",
"254.333 152.5 OFFCURVE",
"227 195.5 CURVE SMOOTH",
"199.667 238.5 OFFCURVE",
"177.333 284.667 OFFCURVE",
"160 334 CURVE SMOOTH",
"142 383.333 OFFCURVE",
"128.667 434.333 OFFCURVE",
"120 487 CURVE SMOOTH",
"111.333 539.667 OFFCURVE",
"106.667 592 OFFCURVE",
"106 644 CURVE",
"106 810 LINE SMOOTH",
"106.667 862 OFFCURVE",
"111.167 914.5 OFFCURVE",
"119.5 967.5 CURVE SMOOTH",
"127.833 1020.5 OFFCURVE",
"141 1071.667 OFFCURVE",
"159 1121 CURVE SMOOTH",
"176.333 1170.333 OFFCURVE",
"198.5 1216.5 OFFCURVE",
"225.5 1259.5 CURVE SMOOTH",
"252.5 1302.5 OFFCURVE",
"284.667 1340.333 OFFCURVE",
"322 1373 CURVE SMOOTH",
"359.333 1405 OFFCURVE",
"402.167 1430.167 OFFCURVE",
"450.5 1448.5 CURVE SMOOTH",
"498.833 1466.833 OFFCURVE",
"553 1476 OFFCURVE",
"613 1476 CURVE SMOOTH",
"673 1476 OFFCURVE",
"727.333 1466.833 OFFCURVE",
"776 1448.5 CURVE SMOOTH",
"824.667 1430.167 OFFCURVE",
"867.667 1405 OFFCURVE",
"905 1373 CURVE SMOOTH",
"942.333 1341 OFFCURVE",
"974.5 1303.5 OFFCURVE",
"1001.5 1260.5 CURVE SMOOTH",
"1028.5 1217.5 OFFCURVE",
"1051 1171.333 OFFCURVE",
"1069 1122 CURVE SMOOTH",
"1086.333 1072.667 OFFCURVE",
"1099.167 1021.333 OFFCURVE",
"1107.5 968 CURVE SMOOTH",
"1115.833 914.667 OFFCURVE",
"1120.333 862 OFFCURVE",
"1121 810 CURVE SMOOTH",
"1121 644 LINE",
"1121 644 LINE"
);
},
{
closed = 1;
nodes = (
"937.333 846.667 OFFCURVE",
"935 882.833 OFFCURVE",
"931 920.5 CURVE SMOOTH",
"927 958.167 OFFCURVE",
"920.333 995.667 OFFCURVE",
"911 1033 CURVE SMOOTH",
"901 1069.667 OFFCURVE",
"888 1104.833 OFFCURVE",
"872 1138.5 CURVE SMOOTH",
"856 1172.167 OFFCURVE",
"836 1202 OFFCURVE",
"812 1228 CURVE SMOOTH",
"788 1253.333 OFFCURVE",
"759.667 1273.5 OFFCURVE",
"727 1288.5 CURVE SMOOTH",
"694.333 1303.5 OFFCURVE",
"656.333 1311 OFFCURVE",
"613 1311 CURVE SMOOTH",
"570.333 1311 OFFCURVE",
"532.667 1303.333 OFFCURVE",
"500 1288 CURVE SMOOTH",
"467.333 1272.667 OFFCURVE",
"439 1252.333 OFFCURVE",
"415 1227 CURVE SMOOTH",
"391 1201 OFFCURVE",
"371 1171.167 OFFCURVE",
"355 1137.5 CURVE SMOOTH",
"339 1103.833 OFFCURVE",
"326.333 1068.667 OFFCURVE",
"317 1032 CURVE SMOOTH",
"307 994.667 OFFCURVE",
"299.833 957.167 OFFCURVE",
"295.5 919.5 CURVE SMOOTH",
"291.167 881.833 OFFCURVE",
"288.667 846 OFFCURVE",
"288 812 CURVE SMOOTH",
"288 644 LINE SMOOTH",
"288.667 610 OFFCURVE",
"291.167 574 OFFCURVE",
"295.5 536 CURVE SMOOTH",
"299.833 498 OFFCURVE",
"307 460.667 OFFCURVE",
"317 424 CURVE SMOOTH",
"327 386.667 OFFCURVE",
"340 351 OFFCURVE",
"356 317 CURVE SMOOTH",
"372 283 OFFCURVE",
"392 253.333 OFFCURVE",
"416 228 CURVE SMOOTH",
"440 202 OFFCURVE",
"468.333 181.333 OFFCURVE",
"501 166 CURVE SMOOTH",
"533.667 150.667 OFFCURVE",
"571.667 143 OFFCURVE",
"615 143 CURVE SMOOTH",
"658.333 143 OFFCURVE",
"696.5 150.667 OFFCURVE",
"729.5 166 CURVE SMOOTH",
"762.5 181.333 OFFCURVE",
"791 202 OFFCURVE",
"815 228 CURVE SMOOTH",
"838.333 253.333 OFFCURVE",
"857.833 282.833 OFFCURVE",
"873.5 316.5 CURVE SMOOTH",
"889.167 350.167 OFFCURVE",
"902 385.667 OFFCURVE",
"912 423 CURVE SMOOTH",
"921.333 459.667 OFFCURVE",
"927.833 497 OFFCURVE",
"931.5 535 CURVE SMOOTH",
"935.167 573 OFFCURVE",
"937.333 609.333 OFFCURVE",
"938 644 CURVE SMOOTH",
"938 812 LINE",
"938 812 LINE"
);
}
);
width = 1229;
}
);
note = uni047A;
unicode = 047A;
},
{
glyphname = uni047B;
layers = (
{
layerId = "F4097653-A9A4-44E6-964D-6A1AD0606D75";
paths = (
{
closed = 1;
nodes = (
"708 838 LINE",
"522 838 LINE",
"522 1227 LINE",
"708 1227 LINE",
"708 838 LINE"
);
},
{
closed = 1;
nodes = (
"708 -159 LINE",
"522 -159 LINE",
"522 248 LINE",
"708 248 LINE",
"708 -159 LINE"
);
},
{
closed = 1;
nodes = (
"122 629 OFFCURVE",
"133.333 701.5 OFFCURVE",
"156 768.5 CURVE SMOOTH",
"178.667 835.5 OFFCURVE",
"211.333 893.667 OFFCURVE",
"254 943 CURVE SMOOTH",
"296 992.333 OFFCURVE",
"347.333 1031.167 OFFCURVE",
"408 1059.5 CURVE SMOOTH",
"468.667 1087.833 OFFCURVE",
"537 1102 OFFCURVE",
"613 1102 CURVE SMOOTH",
"689.667 1102 OFFCURVE",
"758.5 1087.833 OFFCURVE",
"819.5 1059.5 CURVE SMOOTH",
"880.5 1031.167 OFFCURVE",
"932.333 992.333 OFFCURVE",
"975 943 CURVE SMOOTH",
"1017 893.667 OFFCURVE",
"1049.333 835.5 OFFCURVE",
"1072 768.5 CURVE SMOOTH",
"1094.667 701.5 OFFCURVE",
"1106 629 OFFCURVE",
"1106 551 CURVE SMOOTH",
"1106 529 LINE SMOOTH",
"1106 451 OFFCURVE",
"1094.667 378.667 OFFCURVE",
"1072 312 CURVE SMOOTH",
"1049.333 245.333 OFFCURVE",
"1017 187.333 OFFCURVE",
"975 138 CURVE SMOOTH",
"932.333 88.667 OFFCURVE",
"880.667 50 OFFCURVE",
"820 22 CURVE SMOOTH",
"759.333 -6 OFFCURVE",
"691 -20 OFFCURVE",
"615 -20 CURVE SMOOTH",
"538.333 -20 OFFCURVE",
"469.5 -6 OFFCURVE",
"408.5 22 CURVE SMOOTH",
"347.5 50 OFFCURVE",
"296 88.667 OFFCURVE",
"254 138 CURVE SMOOTH",
"211.333 187.333 OFFCURVE",
"178.667 245.333 OFFCURVE",
"156 312 CURVE SMOOTH",
"133.333 378.667 OFFCURVE",
"122 451 OFFCURVE",
"122 529 CURVE SMOOTH",
"122 551 LINE",
"122 551 LINE"
);
},
{
closed = 1;
nodes = (
"307 475.667 OFFCURVE",
"313.333 424.833 OFFCURVE",
"326 376.5 CURVE SMOOTH",
"338.667 328.167 OFFCURVE",
"358 285.667 OFFCURVE",
"384 249 CURVE SMOOTH",
"409.333 212.333 OFFCURVE",
"441.333 183.333 OFFCURVE",
"480 162 CURVE SMOOTH",
"518.667 140.667 OFFCURVE",
"563.667 130 OFFCURVE",
"615 130 CURVE SMOOTH",
"665.667 130 OFFCURVE",
"710.167 140.667 OFFCURVE",
"748.5 162 CURVE SMOOTH",
"786.833 183.333 OFFCURVE",
"819 212.333 OFFCURVE",
"845 249 CURVE SMOOTH",
"870.333 285.667 OFFCURVE",
"889.333 328.167 OFFCURVE",
"902 376.5 CURVE SMOOTH",
"914.667 424.833 OFFCURVE",
"921 475.667 OFFCURVE",
"921 529 CURVE SMOOTH",
"921 551 LINE SMOOTH",
"921 603.667 OFFCURVE",
"914.5 654.167 OFFCURVE",
"901.5 702.5 CURVE SMOOTH",
"888.5 750.833 OFFCURVE",
"869.333 793.333 OFFCURVE",
"844 830 CURVE SMOOTH",
"818 866.667 OFFCURVE",
"785.833 895.833 OFFCURVE",
"747.5 917.5 CURVE SMOOTH",
"709.167 939.167 OFFCURVE",
"664.333 950 OFFCURVE",
"613 950 CURVE SMOOTH",
"561.667 950 OFFCURVE",
"517 939.167 OFFCURVE",
"479 917.5 CURVE SMOOTH",
"441 895.833 OFFCURVE",
"409.333 866.667 OFFCURVE",
"384 830 CURVE SMOOTH",
"358 793.333 OFFCURVE",
"338.667 750.833 OFFCURVE",
"326 702.5 CURVE SMOOTH",
"313.333 654.167 OFFCURVE",
"307 603.667 OFFCURVE",
"307 551 CURVE SMOOTH",
"307 529 LINE",
"307 529 LINE"
);
}
);
width = 1229;
}
);
note = uni047B;
unicode = 047B;
},
{
glyphname = uni047C;
layers = (
{
layerId = "F4097653-A9A4-44E6-964D-6A1AD0606D75";
paths = (
{
closed = 1;
nodes = (
"854 1455 OFFCURVE",
"901.667 1446.5 OFFCURVE",
"945 1429.5 CURVE SMOOTH",
"988.333 1412.5 OFFCURVE",
"1025.667 1387.333 OFFCURVE",
"1057 1354 CURVE SMOOTH",
"1071.667 1338 OFFCURVE",
"1084.833 1320.333 OFFCURVE",
"1096.5 1301 CURVE SMOOTH",
"1108.167 1281.667 OFFCURVE",
"1118 1260.667 OFFCURVE",
"1126 1238 CURVE SMOOTH",
"1135.333 1213.333 OFFCURVE",
"1142.5 1186.167 OFFCURVE",
"1147.5 1156.5 CURVE SMOOTH",
"1152.5 1126.833 OFFCURVE",
"1155 1095 OFFCURVE",
"1155 1061 CURVE SMOOTH",
"1155 336 LINE SMOOTH",
"1155 278 OFFCURVE",
"1147.333 226.833 OFFCURVE",
"1132 182.5 CURVE SMOOTH",
"1116.667 138.167 OFFCURVE",
"1095.333 101 OFFCURVE",
"1068 71 CURVE SMOOTH",
"1040 41 OFFCURVE",
"1006.5 18.167 OFFCURVE",
"967.5 2.5 CURVE SMOOTH",
"928.5 -13.167 OFFCURVE",
"885.667 -21 OFFCURVE",
"839 -21 CURVE SMOOTH",
"806.333 -21 OFFCURVE",
"776.167 -16 OFFCURVE",
"748.5 -6 CURVE SMOOTH",
"720.833 4 OFFCURVE",
"696.333 18.667 OFFCURVE",
"675 38 CURVE SMOOTH",
"663 48.667 OFFCURVE",
"652 61 OFFCURVE",
"642 75 CURVE SMOOTH",
"632 89 OFFCURVE",
"623.333 104.333 OFFCURVE",
"616 121 CURVE",
"608 103.667 OFFCURVE",
"598.667 88 OFFCURVE",
"588 74 CURVE SMOOTH",
"577.333 60 OFFCURVE",
"566 47.333 OFFCURVE",
"554 36 CURVE",
"532.667 17.333 OFFCURVE",
"508.333 3.167 OFFCURVE",
"481 -6.5 CURVE SMOOTH",
"453.667 -16.167 OFFCURVE",
"424.333 -21 OFFCURVE",
"393 -21 CURVE SMOOTH",
"345.667 -21 OFFCURVE",
"302.667 -13.167 OFFCURVE",
"264 2.5 CURVE SMOOTH",
"225.333 18.167 OFFCURVE",
"192.333 41 OFFCURVE",
"165 71 CURVE SMOOTH",
"137 101 OFFCURVE",
"115.333 138.167 OFFCURVE",
"100 182.5 CURVE SMOOTH",
"84.667 226.833 OFFCURVE",
"77 278 OFFCURVE",
"77 336 CURVE SMOOTH",
"77 1061 LINE SMOOTH",
"77 1097 OFFCURVE",
"79.667 1130.5 OFFCURVE",
"85 1161.5 CURVE SMOOTH",
"90.333 1192.5 OFFCURVE",
"98.333 1221 OFFCURVE",
"109 1247 CURVE SMOOTH",
"117 1267.667 OFFCURVE",
"126.5 1287 OFFCURVE",
"137.5 1305 CURVE SMOOTH",
"148.5 1323 OFFCURVE",
"161 1339.333 OFFCURVE",
"175 1354 CURVE SMOOTH",
"205.667 1387.333 OFFCURVE",
"242.667 1412.5 OFFCURVE",
"286 1429.5 CURVE SMOOTH",
"329.333 1446.5 OFFCURVE",
"377.333 1455 OFFCURVE",
"430 1455 CURVE",
"430 1304 LINE",
"409.333 1303.333 OFFCURVE",
"390 1299.5 OFFCURVE",
"372 1292.5 CURVE SMOOTH",
"354 1285.5 OFFCURVE",
"338.333 1275.333 OFFCURVE",
"325 1262 CURVE SMOOTH",
"313 1250 OFFCURVE",
"302.667 1235.5 OFFCURVE",
"294 1218.5 CURVE SMOOTH",
"285.333 1201.5 OFFCURVE",
"278.667 1182.333 OFFCURVE",
"274 1161 CURVE",
"270 1146.333 OFFCURVE",
"267.167 1130.667 OFFCURVE",
"265.5 1114 CURVE SMOOTH",
"263.833 1097.333 OFFCURVE",
"263 1079.667 OFFCURVE",
"263 1061 CURVE SMOOTH",
"263 336 LINE SMOOTH",
"263 302 OFFCURVE",
"266.333 271.667 OFFCURVE",
"273 245 CURVE SMOOTH",
"279.667 218.333 OFFCURVE",
"289 196.333 OFFCURVE",
"301 179 CURVE SMOOTH",
"312.333 163 OFFCURVE",
"325.667 150.833 OFFCURVE",
"341 142.5 CURVE SMOOTH",
"356.333 134.167 OFFCURVE",
"373.667 130 OFFCURVE",
"393 130 CURVE SMOOTH",
"409 130 OFFCURVE",
"423.833 132.833 OFFCURVE",
"437.5 138.5 CURVE SMOOTH",
"451.167 144.167 OFFCURVE",
"463.333 152 OFFCURVE",
"474 162 CURVE SMOOTH",
"484 172 OFFCURVE",
"492.5 184.333 OFFCURVE",
"499.5 199 CURVE SMOOTH",
"506.5 213.667 OFFCURVE",
"512 230.333 OFFCURVE",
"516 249 CURVE",
"518.667 259 OFFCURVE",
"520.5 269.833 OFFCURVE",
"521.5 281.5 CURVE SMOOTH",
"522.5 293.167 OFFCURVE",
"523 305.333 OFFCURVE",
"523 318 CURVE SMOOTH",
"523 826 LINE",
"709 826 LINE",
"709 318 LINE SMOOTH",
"709 306.667 OFFCURVE",
"709.5 295.667 OFFCURVE",
"710.5 285 CURVE SMOOTH",
"711.5 274.333 OFFCURVE",
"713 264 OFFCURVE",
"715 254 CURVE SMOOTH",
"718.333 236.667 OFFCURVE",
"723 221 OFFCURVE",
"729 207 CURVE SMOOTH",
"735 193 OFFCURVE",
"742 181 OFFCURVE",
"750 171 CURVE SMOOTH",
"761.333 157.667 OFFCURVE",
"774.5 147.5 OFFCURVE",
"789.5 140.5 CURVE SMOOTH",
"804.5 133.5 OFFCURVE",
"821 130 OFFCURVE",
"839 130 CURVE SMOOTH",
"856.333 130 OFFCURVE",
"872.167 133.5 OFFCURVE",
"886.5 140.5 CURVE SMOOTH",
"900.833 147.5 OFFCURVE",
"913.667 157.667 OFFCURVE",
"925 171 CURVE SMOOTH",
"939 188.333 OFFCURVE",
"949.833 211 OFFCURVE",
"957.5 239 CURVE SMOOTH",
"965.167 267 OFFCURVE",
"969.333 299.333 OFFCURVE",
"970 336 CURVE SMOOTH",
"970 1061 LINE",
"969.333 1085 OFFCURVE",
"967.5 1107.5 OFFCURVE",
"964.5 1128.5 CURVE SMOOTH",
"961.5 1149.5 OFFCURVE",
"957 1168.667 OFFCURVE",
"951 1186 CURVE SMOOTH",
"945.667 1202 OFFCURVE",
"939 1216.5 OFFCURVE",
"931 1229.5 CURVE SMOOTH",
"923 1242.5 OFFCURVE",
"914.333 1253.667 OFFCURVE",
"905 1263 CURVE SMOOTH",
"891 1276.333 OFFCURVE",
"875.5 1286.5 OFFCURVE",
"858.5 1293.5 CURVE SMOOTH",
"841.5 1300.5 OFFCURVE",
"822.667 1304 OFFCURVE",
"802 1304 CURVE",
"802 1455 LINE",
"802 1455 LINE"
);
},
{
closed = 1;
nodes = (
"989 1747 LINE",
"989 1620 LINE",
"947 1620 LINE SMOOTH",
"898.333 1620 OFFCURVE",
"854.667 1626.667 OFFCURVE",
"816 1640 CURVE SMOOTH",
"777.333 1653.333 OFFCURVE",
"742 1668 OFFCURVE",
"710 1684 CURVE SMOOTH",
"694.667 1691.333 OFFCURVE",
"679.833 1698.667 OFFCURVE",
"665.5 1706 CURVE SMOOTH",
"651.167 1713.333 OFFCURVE",
"637.333 1720 OFFCURVE",
"624 1726 CURVE SMOOTH",
"610 1732 OFFCURVE",
"596.333 1736.833 OFFCURVE",
"583 1740.5 CURVE SMOOTH",
"569.667 1744.167 OFFCURVE",
"556.333 1746 OFFCURVE",
"543 1746 CURVE SMOOTH",
"523 1746 OFFCURVE",
"505.833 1743.333 OFFCURVE",
"491.5 1738 CURVE SMOOTH",
"477.167 1732.667 OFFCURVE",
"465.667 1723.667 OFFCURVE",
"457 1711 CURVE SMOOTH",
"451 1702.333 OFFCURVE",
"446.167 1691.833 OFFCURVE",
"442.5 1679.5 CURVE SMOOTH",
"438.833 1667.167 OFFCURVE",
"436.667 1653 OFFCURVE",
"436 1637 CURVE SMOOTH",
"435 1619 LINE",
"308 1619 LINE",
"308 1655 LINE SMOOTH",
"308 1689.667 OFFCURVE",
"312.667 1720.167 OFFCURVE",
"322 1746.5 CURVE SMOOTH",
"331.333 1772.833 OFFCURVE",
"344.667 1795 OFFCURVE",
"362 1813 CURVE SMOOTH",
"382 1833 OFFCURVE",
"407 1848 OFFCURVE",
"437 1858 CURVE SMOOTH",
"467 1868 OFFCURVE",
"501 1873 OFFCURVE",
"539 1873 CURVE SMOOTH",
"561.667 1873 OFFCURVE",
"583.5 1869.833 OFFCURVE",
"604.5 1863.5 CURVE SMOOTH",
"625.5 1857.167 OFFCURVE",
"646.333 1849.667 OFFCURVE",
"667 1841 CURVE",
"687 1831.667 OFFCURVE",
"707.333 1821.5 OFFCURVE",
"728 1810.5 CURVE SMOOTH",
"748.667 1799.5 OFFCURVE",
"770.333 1789.333 OFFCURVE",
"793 1780 CURVE SMOOTH",
"815.667 1770.667 OFFCURVE",
"839.833 1762.833 OFFCURVE",
"865.5 1756.5 CURVE SMOOTH",
"891.167 1750.167 OFFCURVE",
"919 1747 OFFCURVE",
"949 1747 CURVE SMOOTH",
"989 1747 LINE"
);
},
{
closed = 1;
nodes = (
"531 1405.667 OFFCURVE",
"547.667 1430.833 OFFCURVE",
"559 1454.5 CURVE SMOOTH",
"570.333 1478.167 OFFCURVE",
"576 1502.667 OFFCURVE",
"576 1528 CURVE SMOOTH",
"576 1624 LINE",
"715 1624 LINE",
"715 1522 LINE SMOOTH",
"715 1502.667 OFFCURVE",
"711.333 1483.167 OFFCURVE",
"704 1463.5 CURVE SMOOTH",
"696.667 1443.833 OFFCURVE",
"687 1425.333 OFFCURVE",
"675 1408 CURVE SMOOTH",
"663 1390 OFFCURVE",
"649.167 1373.5 OFFCURVE",
"633.5 1358.5 CURVE SMOOTH",
"617.833 1343.5 OFFCURVE",
"601.667 1331.667 OFFCURVE",
"585 1323 CURVE",
"509 1379 LINE",
"509 1379 LINE"
);
}
);
width = 1229;
}
);
note = uni047C;
unicode = 047C;
},
{
glyphname = uni047D;
layers = (
{
layerId = "F4097653-A9A4-44E6-964D-6A1AD0606D75";
paths = (
{
closed = 1;
nodes = (
"862.333 1101 OFFCURVE",
"907.5 1092.667 OFFCURVE",
"948.5 1076 CURVE SMOOTH",
"989.5 1059.333 OFFCURVE",
"1025 1034.667 OFFCURVE",
"1055 1002 CURVE SMOOTH",
"1084.333 968.667 OFFCURVE",
"1107.167 927.667 OFFCURVE",
"1123.5 879 CURVE SMOOTH",
"1139.833 830.333 OFFCURVE",
"1148 774 OFFCURVE",
"1148 710 CURVE SMOOTH",
"1148 332 LINE SMOOTH",
"1148 274 OFFCURVE",
"1140.833 223 OFFCURVE",
"1126.5 179 CURVE SMOOTH",
"1112.167 135 OFFCURVE",
"1092 98.333 OFFCURVE",
"1066 69 CURVE SMOOTH",
"1039.333 39 OFFCURVE",
"1007.667 16.5 OFFCURVE",
"971 1.5 CURVE SMOOTH",
"934.333 -13.5 OFFCURVE",
"893.667 -21 OFFCURVE",
"849 -21 CURVE SMOOTH",
"814.333 -21 OFFCURVE",
"782.667 -15.667 OFFCURVE",
"754 -5 CURVE SMOOTH",
"725.333 5.667 OFFCURVE",
"700 21.667 OFFCURVE",
"678 43 CURVE",
"668 53.667 OFFCURVE",
"658.667 65.333 OFFCURVE",
"650 78 CURVE SMOOTH",
"641.333 90.667 OFFCURVE",
"633.333 104.333 OFFCURVE",
"626 119 CURVE",
"616 98.333 OFFCURVE",
"604.5 80 OFFCURVE",
"591.5 64 CURVE SMOOTH",
"578.5 48 OFFCURVE",
"564.333 34 OFFCURVE",
"549 22 CURVE",
"528.333 8 OFFCURVE",
"505.667 -2.667 OFFCURVE",
"481 -10 CURVE SMOOTH",
"456.333 -17.333 OFFCURVE",
"430 -21 OFFCURVE",
"402 -21 CURVE SMOOTH",
"357.333 -21 OFFCURVE",
"316.667 -13.5 OFFCURVE",
"280 1.5 CURVE SMOOTH",
"243.333 16.5 OFFCURVE",
"212 39 OFFCURVE",
"186 69 CURVE SMOOTH",
"159.333 98.333 OFFCURVE",
"138.833 135 OFFCURVE",
"124.5 179 CURVE SMOOTH",
"110.167 223 OFFCURVE",
"103 274 OFFCURVE",
"103 332 CURVE SMOOTH",
"103 710 LINE SMOOTH",
"103 774 OFFCURVE",
"111.167 830.333 OFFCURVE",
"127.5 879 CURVE SMOOTH",
"143.833 927.667 OFFCURVE",
"166.667 968.667 OFFCURVE",
"196 1002 CURVE SMOOTH",
"225.333 1034.667 OFFCURVE",
"260.5 1059.333 OFFCURVE",
"301.5 1076 CURVE SMOOTH",
"342.5 1092.667 OFFCURVE",
"388 1101 OFFCURVE",
"438 1101 CURVE",
"438 950 LINE",
"419.333 950 OFFCURVE",
"402.333 946.667 OFFCURVE",
"387 940 CURVE SMOOTH",
"371.667 933.333 OFFCURVE",
"357.667 923.333 OFFCURVE",
"345 910 CURVE SMOOTH",
"327 890.667 OFFCURVE",
"313.167 864.333 OFFCURVE",
"303.5 831 CURVE SMOOTH",
"293.833 797.667 OFFCURVE",
"289 757.333 OFFCURVE",
"289 710 CURVE SMOOTH",
"289 332 LINE SMOOTH",
"289 296 OFFCURVE",
"292.167 264.5 OFFCURVE",
"298.5 237.5 CURVE SMOOTH",
"304.833 210.5 OFFCURVE",
"313.667 188.333 OFFCURVE",
"325 171 CURVE SMOOTH",
"334.333 157.667 OFFCURVE",
"345.5 147.5 OFFCURVE",
"358.5 140.5 CURVE SMOOTH",
"371.5 133.5 OFFCURVE",
"386 130 OFFCURVE",
"402 130 CURVE SMOOTH",
"416.667 130 OFFCURVE",
"430.333 132.167 OFFCURVE",
"443 136.5 CURVE SMOOTH",
"455.667 140.833 OFFCURVE",
"467 147.333 OFFCURVE",
"477 156 CURVE SMOOTH",
"489 166 OFFCURVE",
"499.167 178.667 OFFCURVE",
"507.5 194 CURVE SMOOTH",
"515.833 209.333 OFFCURVE",
"522 227.333 OFFCURVE",
"526 248 CURVE SMOOTH",
"528 258 OFFCURVE",
"529.667 268.5 OFFCURVE",
"531 279.5 CURVE SMOOTH",
"532.333 290.5 OFFCURVE",
"533 302 OFFCURVE",
"533 314 CURVE SMOOTH",
"533 583 LINE",
"719 583 LINE",
"719 314 LINE SMOOTH",
"719 300.667 OFFCURVE",
"719.667 288 OFFCURVE",
"721 276 CURVE SMOOTH",
"722.333 264 OFFCURVE",
"724 252.667 OFFCURVE",
"726 242 CURVE",
"730 224.667 OFFCURVE",
"735.5 209.333 OFFCURVE",
"742.5 196 CURVE SMOOTH",
"749.5 182.667 OFFCURVE",
"758 171.333 OFFCURVE",
"768 162 CURVE SMOOTH",
"778.667 151.333 OFFCURVE",
"790.833 143.333 OFFCURVE",
"804.5 138 CURVE SMOOTH",
"818.167 132.667 OFFCURVE",
"833 130 OFFCURVE",
"849 130 CURVE SMOOTH",
"865.667 130 OFFCURVE",
"880.667 133.833 OFFCURVE",
"894 141.5 CURVE SMOOTH",
"907.333 149.167 OFFCURVE",
"919 160.333 OFFCURVE",
"929 175 CURVE",
"939.667 192.333 OFFCURVE",
"948 214.167 OFFCURVE",
"954 240.5 CURVE SMOOTH",
"960 266.833 OFFCURVE",
"963 297.333 OFFCURVE",
"963 332 CURVE SMOOTH",
"963 710 LINE SMOOTH",
"963 757.333 OFFCURVE",
"958 797.833 OFFCURVE",
"948 831.5 CURVE SMOOTH",
"938 865.167 OFFCURVE",
"923.667 891.667 OFFCURVE",
"905 911 CURVE SMOOTH",
"893 923.667 OFFCURVE",
"879.167 933.333 OFFCURVE",
"863.5 940 CURVE SMOOTH",
"847.833 946.667 OFFCURVE",
"831 950 OFFCURVE",
"813 950 CURVE",
"813 1101 LINE",
"813 1101 LINE"
);
},
{
closed = 1;
nodes = (
"321 1248 LINE",
"321 1285 LINE SMOOTH",
"321 1319 OFFCURVE",
"325.5 1349 OFFCURVE",
"334.5 1375 CURVE SMOOTH",
"343.5 1401 OFFCURVE",
"356.667 1423 OFFCURVE",
"374 1441 CURVE SMOOTH",
"394 1461.667 OFFCURVE",
"419.167 1477 OFFCURVE",
"449.5 1487 CURVE SMOOTH",
"479.833 1497 OFFCURVE",
"514.333 1502 OFFCURVE",
"553 1502 CURVE SMOOTH",
"587.667 1502 OFFCURVE",
"620.167 1495.5 OFFCURVE",
"650.5 1482.5 CURVE SMOOTH",
"680.833 1469.5 OFFCURVE",
"712 1455.333 OFFCURVE",
"744 1440 CURVE SMOOTH",
"757.333 1433.333 OFFCURVE",
"771 1426.667 OFFCURVE",
"785 1420 CURVE SMOOTH",
"799 1413.333 OFFCURVE",
"813.333 1407.333 OFFCURVE",
"828 1402 CURVE SMOOTH",
"848.667 1394 OFFCURVE",
"870.5 1387.667 OFFCURVE",
"893.5 1383 CURVE SMOOTH",
"916.5 1378.333 OFFCURVE",
"941 1376 OFFCURVE",
"967 1376 CURVE SMOOTH",
"1007 1376 LINE",
"1007 1249 LINE",
"964 1249 LINE SMOOTH",
"936 1249 OFFCURVE",
"909.833 1251.333 OFFCURVE",
"885.5 1256 CURVE SMOOTH",
"861.167 1260.667 OFFCURVE",
"838.333 1266.667 OFFCURVE",
"817 1274 CURVE SMOOTH",
"800.333 1279.333 OFFCURVE",
"784.5 1285.5 OFFCURVE",
"769.5 1292.5 CURVE SMOOTH",
"754.5 1299.5 OFFCURVE",
"740 1306.333 OFFCURVE",
"726 1313 CURVE SMOOTH",
"693.333 1328.333 OFFCURVE",
"663.5 1342.5 OFFCURVE",
"636.5 1355.5 CURVE SMOOTH",
"609.5 1368.5 OFFCURVE",
"583 1375 OFFCURVE",
"557 1375 CURVE SMOOTH",
"539 1375 OFFCURVE",
"523.333 1372.5 OFFCURVE",
"510 1367.5 CURVE SMOOTH",
"496.667 1362.5 OFFCURVE",
"485.333 1354.667 OFFCURVE",
"476 1344 CURVE SMOOTH",
"468 1335.333 OFFCURVE",
"461.667 1324.5 OFFCURVE",
"457 1311.5 CURVE SMOOTH",
"452.333 1298.5 OFFCURVE",
"449.667 1283.333 OFFCURVE",
"449 1266 CURVE SMOOTH",
"448 1248 LINE",
"321 1248 LINE"
);
},
{
closed = 1;
nodes = (
"544 1033.667 OFFCURVE",
"560.667 1058.833 OFFCURVE",
"572 1082.5 CURVE SMOOTH",
"583.333 1106.167 OFFCURVE",
"589 1130.667 OFFCURVE",
"589 1156 CURVE SMOOTH",
"589 1252 LINE",
"728 1252 LINE",
"728 1150 LINE SMOOTH",
"728 1130.667 OFFCURVE",
"724.333 1111.167 OFFCURVE",
"717 1091.5 CURVE SMOOTH",
"709.667 1071.833 OFFCURVE",
"700 1053.333 OFFCURVE",
"688 1036 CURVE SMOOTH",
"676 1018 OFFCURVE",
"662.167 1001.5 OFFCURVE",
"646.5 986.5 CURVE SMOOTH",
"630.833 971.5 OFFCURVE",
"614.667 959.667 OFFCURVE",
"598 951 CURVE",
"522 1007 LINE",
"522 1007 LINE"
);
}
);
width = 1229;
}
);
note = uni047D;
unicode = 047D;
},
{
glyphname = uni047E;
layers = (
{
layerId = "F4097653-A9A4-44E6-964D-6A1AD0606D75";
paths = (
{
closed = 1;
nodes = (
"283 1796 LINE",
"1003 1796 LINE",
"1004 1688 LINE",
"719 1688 LINE",
"719 1563 LINE",
"551 1563 LINE",
"551 1688 LINE",
"283 1688 LINE",
"283 1796 LINE"
);
},
{
closed = 1;
nodes = (
"1156 1456 LINE",
"1157 318 LINE SMOOTH",
"1157 263.333 OFFCURVE",
"1149.833 215 OFFCURVE",
"1135.5 173 CURVE SMOOTH",
"1121.167 131 OFFCURVE",
"1101 95.667 OFFCURVE",
"1075 67 CURVE SMOOTH",
"1049 38.333 OFFCURVE",
"1017.833 16.667 OFFCURVE",
"981.5 2 CURVE SMOOTH",
"945.167 -12.667 OFFCURVE",
"905 -20 OFFCURVE",
"861 -20 CURVE SMOOTH",
"827.667 -20 OFFCURVE",
"797.167 -15 OFFCURVE",
"769.5 -5 CURVE SMOOTH",
"741.833 5 OFFCURVE",
"717.333 19.667 OFFCURVE",
"696 39 CURVE SMOOTH",
"683.333 50.333 OFFCURVE",
"672 63.333 OFFCURVE",
"662 78 CURVE SMOOTH",
"652 92.667 OFFCURVE",
"643 109 OFFCURVE",
"635 127 CURVE",
"626.333 107.667 OFFCURVE",
"616.333 90.167 OFFCURVE",
"605 74.5 CURVE SMOOTH",
"593.667 58.833 OFFCURVE",
"581 45.333 OFFCURVE",
"567 34 CURVE",
"546.333 16 OFFCURVE",
"522.667 2.5 OFFCURVE",
"496 -6.5 CURVE SMOOTH",
"469.333 -15.5 OFFCURVE",
"440.667 -20 OFFCURVE",
"410 -20 CURVE SMOOTH",
"365.333 -20 OFFCURVE",
"324.833 -12.667 OFFCURVE",
"288.5 2 CURVE SMOOTH",
"252.167 16.667 OFFCURVE",
"221 38.333 OFFCURVE",
"195 67 CURVE SMOOTH",
"169 95.667 OFFCURVE",
"148.833 131 OFFCURVE",
"134.5 173 CURVE SMOOTH",
"120.167 215 OFFCURVE",
"113 263.333 OFFCURVE",
"113 318 CURVE SMOOTH",
"114 1456 LINE",
"298 1456 LINE",
"299 318 LINE SMOOTH",
"299 290.667 OFFCURVE",
"301.167 266 OFFCURVE",
"305.5 244 CURVE SMOOTH",
"309.833 222 OFFCURVE",
"316 203 OFFCURVE",
"324 187 CURVE SMOOTH",
"334 168.333 OFFCURVE",
"346.167 154.167 OFFCURVE",
"360.5 144.5 CURVE SMOOTH",
"374.833 134.833 OFFCURVE",
"391.333 130 OFFCURVE",
"410 130 CURVE SMOOTH",
"426.667 130 OFFCURVE",
"442 133 OFFCURVE",
"456 139 CURVE SMOOTH",
"470 145 OFFCURVE",
"482.333 153.667 OFFCURVE",
"493 165 CURVE SMOOTH",
"502.333 175 OFFCURVE",
"510.333 187 OFFCURVE",
"517 201 CURVE SMOOTH",
"523.667 215 OFFCURVE",
"528.667 231 OFFCURVE",
"532 249 CURVE",
"534.667 259 OFFCURVE",
"536.5 269.833 OFFCURVE",
"537.5 281.5 CURVE SMOOTH",
"538.5 293.167 OFFCURVE",
"539 305.333 OFFCURVE",
"539 318 CURVE SMOOTH",
"540 1456 LINE",
"731 1456 LINE",
"731 318 LINE SMOOTH",
"731 306.667 OFFCURVE",
"731.5 295.667 OFFCURVE",
"732.5 285 CURVE SMOOTH",
"733.5 274.333 OFFCURVE",
"735 264 OFFCURVE",
"737 254 CURVE SMOOTH",
"739.667 238 OFFCURVE",
"743.833 223.333 OFFCURVE",
"749.5 210 CURVE SMOOTH",
"755.167 196.667 OFFCURVE",
"761.667 185 OFFCURVE",
"769 175 CURVE SMOOTH",
"780.333 160.333 OFFCURVE",
"793.667 149.167 OFFCURVE",
"809 141.5 CURVE SMOOTH",
"824.333 133.833 OFFCURVE",
"841.667 130 OFFCURVE",
"861 130 CURVE SMOOTH",
"877 130 OFFCURVE",
"891.5 133.667 OFFCURVE",
"904.5 141 CURVE SMOOTH",
"917.5 148.333 OFFCURVE",
"928.667 159 OFFCURVE",
"938 173 CURVE SMOOTH",
"948.667 189 OFFCURVE",
"956.833 209.333 OFFCURVE",
"962.5 234 CURVE SMOOTH",
"968.167 258.667 OFFCURVE",
"971 286.667 OFFCURVE",
"971 318 CURVE SMOOTH",
"972 1456 LINE",
"1156 1456 LINE"
);
}
);
width = 1229;
}
);
note = uni047E;
unicode = 047E;
},
{
glyphname = uni047F;
layers = (
{
layerId = "F4097653-A9A4-44E6-964D-6A1AD0606D75";
paths = (
{
closed = 1;
nodes = (
"260 1456 LINE",
"986 1456 LINE",
"987 1348 LINE",
"699 1348 LINE",
"699 1221 LINE",
"531 1221 LINE",
"531 1348 LINE",
"260 1348 LINE",
"260 1456 LINE"
);
},
{
closed = 1;
nodes = (
"1146 1083 LINE",
"1146 316 LINE SMOOTH",
"1146 261.333 OFFCURVE",
"1138.833 213 OFFCURVE",
"1124.5 171 CURVE SMOOTH",
"1110.167 129 OFFCURVE",
"1090 94 OFFCURVE",
"1064 66 CURVE SMOOTH",
"1037.333 37.333 OFFCURVE",
"1005.667 15.667 OFFCURVE",
"969 1 CURVE SMOOTH",
"932.333 -13.667 OFFCURVE",
"892 -21 OFFCURVE",
"848 -21 CURVE SMOOTH",
"813.333 -21 OFFCURVE",
"781.333 -15.5 OFFCURVE",
"752 -4.5 CURVE SMOOTH",
"722.667 6.5 OFFCURVE",
"697 23 OFFCURVE",
"675 45 CURVE SMOOTH",
"664.333 55.667 OFFCURVE",
"654.333 67.833 OFFCURVE",
"645 81.5 CURVE SMOOTH",
"635.667 95.167 OFFCURVE",
"627.333 110 OFFCURVE",
"620 126 CURVE",
"613.333 111.333 OFFCURVE",
"606 97.667 OFFCURVE",
"598 85 CURVE SMOOTH",
"590 72.333 OFFCURVE",
"581 61 OFFCURVE",
"571 51 CURVE",
"549 27 OFFCURVE",
"523 9 OFFCURVE",
"493 -3 CURVE SMOOTH",
"463 -15 OFFCURVE",
"430 -21 OFFCURVE",
"394 -21 CURVE SMOOTH",
"349.333 -21 OFFCURVE",
"308.667 -13.667 OFFCURVE",
"272 1 CURVE SMOOTH",
"235.333 15.667 OFFCURVE",
"204 37.333 OFFCURVE",
"178 66 CURVE SMOOTH",
"152 94 OFFCURVE",
"131.667 129 OFFCURVE",
"117 171 CURVE SMOOTH",
"102.333 213 OFFCURVE",
"95 261.333 OFFCURVE",
"95 316 CURVE SMOOTH",
"96 1083 LINE",
"281 1083 LINE",
"281 316 LINE SMOOTH",
"281 286 OFFCURVE",
"283.667 259.333 OFFCURVE",
"289 236 CURVE SMOOTH",
"294.333 212.667 OFFCURVE",
"302 193.333 OFFCURVE",
"312 178 CURVE",
"321.333 162 OFFCURVE",
"333 150 OFFCURVE",
"347 142 CURVE SMOOTH",
"361 134 OFFCURVE",
"376.667 130 OFFCURVE",
"394 130 CURVE SMOOTH",
"424.667 130 OFFCURVE",
"450.667 139.667 OFFCURVE",
"472 159 CURVE SMOOTH",
"493.333 178.333 OFFCURVE",
"508.333 205.667 OFFCURVE",
"517 241 CURVE SMOOTH",
"519.667 252.333 OFFCURVE",
"521.667 264.167 OFFCURVE",
"523 276.5 CURVE SMOOTH",
"524.333 288.833 OFFCURVE",
"525 302 OFFCURVE",
"525 316 CURVE SMOOTH",
"525 1083 LINE",
"716 1083 LINE",
"717 316 LINE SMOOTH",
"717 302.667 OFFCURVE",
"717.667 289.833 OFFCURVE",
"719 277.5 CURVE SMOOTH",
"720.333 265.167 OFFCURVE",
"722.333 253.667 OFFCURVE",
"725 243 CURVE SMOOTH",
"733 207 OFFCURVE",
"747.667 179.167 OFFCURVE",
"769 159.5 CURVE SMOOTH",
"790.333 139.833 OFFCURVE",
"816.667 130 OFFCURVE",
"848 130 CURVE SMOOTH",
"861.333 130 OFFCURVE",
"873.833 132.5 OFFCURVE",
"885.5 137.5 CURVE SMOOTH",
"897.167 142.5 OFFCURVE",
"907.333 150 OFFCURVE",
"916 160 CURVE",
"930.667 175.333 OFFCURVE",
"941.833 196.167 OFFCURVE",
"949.5 222.5 CURVE SMOOTH",
"957.167 248.833 OFFCURVE",
"961 280 OFFCURVE",
"961 316 CURVE SMOOTH",
"961 1083 LINE",
"1146 1083 LINE"
);
}
);
width = 1229;
}
);
note = uni047F;
unicode = 047F;
},
